<?xml version="1.0" standalone="no"?>
<!DOCTYPE svg PUBLIC "-//W3C//DTD SVG 20010904//EN"
 "http://www.w3.org/TR/2001/REC-SVG-20010904/DTD/svg10.dtd">
<svg version="1.0" xmlns="http://www.w3.org/2000/svg"
 width="305.000000pt" height="305.000000pt" viewBox="0 0 305.000000 305.000000"
 preserveAspectRatio="xMidYMid meet">

<g transform="translate(0.000000,305.000000) scale(0.100000,-0.100000)"
fill="#000000" stroke="none">
<path d="M590 3035 c-160 -27 -266 -81 -381 -195 -113 -112 -167 -219 -195
-390 -20 -124 -20 -1726 0 -1850 28 -171 82 -278 195 -390 118 -116 221 -168
391 -196 124 -20 1726 -20 1850 0 170 28 273 80 391 196 113 112 167 219 195
390 20 124 20 1726 0 1850 -28 171 -82 278 -195 390 -118 116 -221 168 -391
196 -118 19 -1746 19 -1860 -1z m805 -310 c97 -25 180 -71 249 -138 34 -34 72
-75 83 -91 l20 -29 34 26 c95 72 235 107 352 88 379 -63 534 -515 272 -790
-185 -194 -481 -201 -671 -16 l-51 51 -52 -47 c-94 -85 -238 -139 -366 -139
-225 0 -439 151 -517 365 -26 72 -36 228 -19 305 43 201 213 370 420 419 59
14 183 12 246 -4z m898 -1207 c118 -55 213 -179 237 -307 13 -72 13 -382 -1
-456 -24 -129 -111 -243 -229 -299 l-65 -31 -405 0 -405 0 -58 27 c-72 34
-155 112 -192 180 -15 29 -29 54 -30 56 -2 2 -89 -40 -194 -92 -164 -83 -198
-96 -240 -96 -85 0 -142 35 -182 112 -18 34 -19 62 -19 368 0 354 2 374 53
429 32 35 95 61 150 61 42 0 75 -14 240 -99 l193 -99 18 44 c35 86 137 178
239 215 48 17 81 19 442 16 l390 -2 58 -27z"/>
<path d="M1157 2495 c-148 -55 -238 -211 -206 -363 14 -72 30 -103 82 -159 56
-61 126 -95 208 -101 136 -10 248 52 309 172 32 63 35 77 34 150 0 98 -25 158
-94 227 -80 80 -227 113 -333 74z"/>
<path d="M2000 2351 c-50 -15 -89 -41 -124 -83 -94 -110 -66 -286 57 -362 150
-93 349 2 373 177 23 166 -149 316 -306 268z"/>
<path d="M1495 1331 c-45 -11 -69 -27 -103 -65 -45 -51 -52 -91 -52 -292 0
-179 0 -182 28 -235 22 -43 38 -59 82 -82 l54 -28 335 3 c382 3 388 4 446 87
l30 43 0 221 c0 215 -1 223 -23 260 -13 20 -45 50 -70 65 l-47 27 -325 2
c-179 1 -338 -2 -355 -6z"/>
<path d="M736 1188 c-13 -18 -16 -56 -16 -210 0 -175 1 -189 20 -208 11 -11
26 -20 33 -20 6 1 89 40 182 88 l170 87 3 57 3 57 -170 86 c-94 47 -180 85
-190 85 -11 0 -27 -10 -35 -22z"/>
</g>
</svg>
