<?xml version="1.0" encoding="UTF-8" standalone="no"?>
<svg
   xmlns:dc="http://purl.org/dc/elements/1.1/"
   xmlns:cc="http://creativecommons.org/ns#"
   xmlns:rdf="http://www.w3.org/1999/02/22-rdf-syntax-ns#"
   xmlns:svg="http://www.w3.org/2000/svg"
   xmlns="http://www.w3.org/2000/svg"
   viewBox="0 0 1122.52 793.70667"
   height="793.70667"
   width="1122.52"
   xml:space="preserve"
   id="svg2"
   version="1.1"><metadata
     id="metadata8"><rdf:RDF><cc:Work
         rdf:about=""><dc:format>image/svg+xml</dc:format><dc:type
           rdf:resource="http://purl.org/dc/dcmitype/StillImage" /></cc:Work></rdf:RDF></metadata><defs
     id="defs6"><clipPath
       id="clipPath18"
       clipPathUnits="userSpaceOnUse"><path
         id="path16"
         d="M 0,595.28 H 841.89 V 0 H 0 Z" /></clipPath></defs><g
     transform="matrix(1.3333333,0,0,-1.3333333,0,793.70667)"
     id="g10"><g
       id="g12"><g
         clip-path="url(#clipPath18)"
         id="g14"><g
           transform="translate(503.6416,282.9004)"
           id="g20"><path
             id="path22"
             style="fill:#ed7221;fill-opacity:1;fill-rule:nonzero;stroke:none"
             d="M 0,0 4.694,-1.886 12.262,-1.47 11.765,-2.702 7.812,-2.876 C 7.066,-2.907 6.338,-2.924 5.626,-2.915 6.108,-3.381 6.644,-3.927 7.227,-4.546 l 2.661,-2.809 -0.474,-1.187 -5.127,5.635 -4.685,1.886 z m 6.728,5.952 v 0 L 8.066,5.56 7.092,2.195 2.843,3.419 C 2.41,4.105 2.105,4.78 1.978,5.42 1.843,6.059 1.855,6.661 2.024,7.246 2.245,8.021 2.687,8.673 3.355,9.169 4.032,9.665 4.863,9.944 5.864,10.003 6.862,10.076 7.939,9.94 9.066,9.609 10.173,9.283 11.16,8.817 12.036,8.216 12.9,7.614 13.489,6.928 13.787,6.195 14.074,5.457 14.096,4.686 13.871,3.889 13.701,3.3 13.427,2.83 13.007,2.44 12.617,2.06 12.126,1.797 11.583,1.674 11.015,1.547 10.329,1.534 9.523,1.609 L 9.439,2.678 c 0.598,-0.051 1.111,-0.038 1.492,0.05 0.39,0.077 0.72,0.242 1.024,0.513 0.289,0.283 0.514,0.613 0.619,1.012 0.136,0.484 0.144,0.928 0.043,1.341 C 12.515,6.017 12.313,6.381 12.032,6.69 11.745,7.008 11.413,7.283 11.04,7.517 10.397,7.923 9.66,8.25 8.829,8.499 7.812,8.787 6.914,8.915 6.151,8.881 5.393,8.839 4.778,8.622 4.312,8.25 3.846,7.877 3.524,7.428 3.372,6.915 3.245,6.457 3.245,5.975 3.368,5.466 3.499,4.958 3.668,4.555 3.897,4.245 L 6.042,3.627 Z m 3.545,12.61 v 0 C 8.851,18.736 7.693,18.6 6.821,18.164 5.927,17.727 5.439,17.104 5.337,16.3 5.245,15.478 5.575,14.753 6.338,14.122 c 0.763,-0.627 1.911,-1.034 3.432,-1.22 0.949,-0.11 1.813,-0.102 2.558,0.046 0.738,0.136 1.331,0.407 1.78,0.797 0.446,0.377 0.695,0.843 0.763,1.39 0.109,0.775 -0.203,1.478 -0.89,2.126 -0.695,0.648 -1.94,1.072 -3.708,1.301 m 0.165,1.115 v 0 c 1.955,-0.234 3.454,-0.784 4.476,-1.649 1.016,-0.864 1.457,-1.885 1.309,-3.05 C 16.146,14.22 15.795,13.559 15.201,13.016 14.607,12.47 13.829,12.093 12.854,11.889 11.88,11.673 10.809,11.635 9.626,11.787 8.431,11.927 7.381,12.229 6.466,12.686 5.562,13.122 4.901,13.694 4.49,14.359 4.084,15.045 3.906,15.745 4,16.452 c 0.101,0.78 0.456,1.445 1.059,1.991 0.606,0.551 1.407,0.924 2.372,1.119 0.965,0.204 1.966,0.258 3.007,0.115 m -5.279,6.956 v 0 L 17.048,25.731 16.964,24.642 6.49,25.426 6.16,21.358 4.778,21.464 Z m 5.619,8.47 v 0 C 9.342,35.065 8.215,34.764 7.406,34.201 6.609,33.637 6.224,32.946 6.245,32.142 c 0.034,-0.827 0.474,-1.496 1.322,-2 0.842,-0.509 2.046,-0.729 3.568,-0.691 0.966,0.038 1.812,0.182 2.515,0.428 0.722,0.263 1.264,0.601 1.654,1.063 0.381,0.441 0.567,0.936 0.542,1.492 -0.026,0.775 -0.429,1.428 -1.212,1.962 -0.789,0.542 -2.06,0.775 -3.856,0.707 m 0,1.148 v 0 c 1.966,0.068 3.526,-0.254 4.669,-0.962 1.136,-0.711 1.721,-1.643 1.772,-2.809 0.02,-0.767 -0.229,-1.465 -0.722,-2.097 -0.512,-0.631 -1.227,-1.127 -2.16,-1.479 -0.91,-0.347 -1.991,-0.542 -3.177,-0.58 -1.195,-0.039 -2.284,0.089 -3.255,0.398 -0.953,0.31 -1.703,0.767 -2.207,1.368 -0.505,0.615 -0.775,1.285 -0.797,1.996 -0.02,0.784 0.235,1.491 0.75,2.123 0.509,0.631 1.242,1.127 2.169,1.483 0.924,0.334 1.899,0.521 2.958,0.559 m -6.796,7.923 v 0 l 11.838,1.428 0.144,-1.114 -8.77,-5.449 9.286,1.128 0.128,-1.052 -11.83,-1.427 -0.143,1.126 8.779,5.433 -9.305,-1.111 z m -1.88,8.228 v 0 l 11.608,2.682 0.255,-1.072 -4.793,-1.101 0.962,-4.191 4.788,1.11 0.245,-1.063 L 3.55,46.081 3.3,47.153 8.778,48.411 7.812,52.589 2.347,51.334 Z M 5.279,56.3 v 0 L 5.267,55.122 c -1.301,-0.207 -2.37,-0.143 -3.208,0.195 -0.848,0.351 -1.399,0.919 -1.695,1.725 -0.289,0.852 -0.28,1.627 0.034,2.326 0.305,0.699 0.881,1.351 1.72,1.952 0.839,0.602 1.788,1.098 2.876,1.467 1.166,0.407 2.233,0.614 3.221,0.602 0.991,-0.009 1.801,-0.221 2.453,-0.64 0.653,-0.419 1.097,-0.966 1.334,-1.653 0.276,-0.796 0.229,-1.555 -0.165,-2.271 -0.381,-0.732 -1.059,-1.393 -2.021,-1.966 l -0.704,0.898 c 0.759,0.467 1.251,0.932 1.513,1.411 0.263,0.475 0.28,0.979 0.103,1.492 -0.204,0.602 -0.594,1.03 -1.145,1.297 C 9.032,62.21 8.362,62.304 7.621,62.223 6.858,62.139 6.108,61.978 5.363,61.723 4.414,61.38 3.618,60.99 2.97,60.55 2.329,60.113 1.89,59.626 1.673,59.097 1.466,58.563 1.444,58.059 1.613,57.58 1.812,56.999 2.229,56.601 2.843,56.364 3.481,56.131 4.278,56.105 5.279,56.3 m -9.058,11.367 v 0 L 7.083,72.574 9.558,67.121 8.278,66.545 6.263,70.994 2.923,69.49 4.812,65.325 3.524,64.744 1.651,68.917 -2.06,67.244 0.054,62.604 -1.229,62.028 Z m -2.432,4.497 v 0 L 2.877,77.467 1.5,79.832 2.706,80.535 6.021,74.854 4.804,74.146 3.424,76.515 -5.661,71.21 Z m -7.533,13.235 v 0 l 1.114,-1.381 c 0.33,-0.424 0.664,-0.716 0.97,-0.873 0.313,-0.144 0.622,-0.211 0.952,-0.191 0.445,0.03 0.962,0.182 1.564,0.475 0.584,0.279 1.225,0.699 1.928,1.263 0.979,0.775 1.626,1.487 1.971,2.126 0.364,0.64 0.499,1.187 0.414,1.653 -0.05,0.33 -0.292,0.758 -0.698,1.263 l -1.08,1.36 z m -1.772,-0.008 v 0 l 9.305,7.431 1.787,-2.233 c 0.415,-0.508 0.67,-0.923 0.788,-1.254 0.178,-0.474 0.203,-0.97 0.085,-1.487 -0.128,-0.67 -0.453,-1.351 -0.966,-2.038 -0.509,-0.691 -1.177,-1.36 -2.001,-2.03 -0.707,-0.563 -1.392,-1.004 -2.024,-1.322 -0.636,-0.321 -1.213,-0.546 -1.721,-0.644 -0.499,-0.106 -0.935,-0.135 -1.304,-0.084 -0.381,0.051 -0.738,0.182 -1.084,0.407 -0.356,0.212 -0.679,0.516 -1.001,0.915 z m -5.817,6.198 v 0 l 8.647,8.186 0.789,-0.813 -3.823,-9.597 6.809,6.427 0.724,-0.767 -8.664,-8.185 -0.775,0.813 3.813,9.597 -6.804,-6.423 z m -1.585,7.885 v 0 l 2.127,-1.855 1.504,3.062 c 0.466,0.92 0.864,1.683 1.183,2.267 -0.589,-0.521 -1.2,-0.983 -1.844,-1.431 z m -5.029,-2.127 v 0 l 10.232,6.898 0.899,-0.788 -5.258,-11.207 -0.941,0.813 1.635,3.36 -2.631,2.297 -3.059,-2.136 z m -10.032,6.729 v 0 l 6.482,9.999 5.028,-3.263 -0.758,-1.178 -4.101,2.665 -1.992,-3.071 3.84,-2.497 -0.763,-1.164 -3.84,2.487 -2.202,-3.41 4.265,-2.759 -0.766,-1.174 z m -0.442,4.91 v 0 l 0.797,-0.856 c -0.789,-1.046 -1.588,-1.737 -2.44,-2.081 -0.84,-0.334 -1.64,-0.313 -2.407,0.077 -0.8,0.403 -1.331,0.966 -1.602,1.682 -0.271,0.724 -0.305,1.576 -0.122,2.597 0.194,1.022 0.538,2.038 1.046,3.055 0.558,1.102 1.211,1.996 1.915,2.674 0.704,0.669 1.45,1.088 2.208,1.241 0.75,0.157 1.47,0.06 2.113,-0.259 0.737,-0.381 1.229,-0.961 1.468,-1.758 0.215,-0.796 0.185,-1.729 -0.112,-2.817 l -1.127,0.161 c 0.23,0.86 0.263,1.547 0.116,2.071 -0.159,0.518 -0.48,0.903 -0.98,1.149 -0.542,0.279 -1.135,0.33 -1.703,0.127 -0.585,-0.195 -1.127,-0.585 -1.61,-1.174 -0.5,-0.576 -0.911,-1.216 -1.254,-1.927 -0.476,-0.899 -0.772,-1.738 -0.919,-2.505 -0.165,-0.758 -0.133,-1.406 0.088,-1.932 0.212,-0.538 0.542,-0.915 0.992,-1.14 0.546,-0.279 1.127,-0.279 1.733,-0.016 0.615,0.263 1.224,0.805 1.8,1.631 m -15.075,2.072 v 0 l 4.441,11.058 1.05,-0.424 0.547,-10.299 3.487,8.677 0.984,-0.39 -4.45,-11.063 -1.05,0.428 -0.551,10.296 -3.487,-8.677 z m -7.55,2.038 v 0 l 3.199,11.482 5.78,-1.606 -0.39,-1.347 -4.707,1.313 -0.983,-3.521 4.418,-1.233 -0.39,-1.351 -4.402,1.224 -1.083,-3.897 4.889,-1.378 -0.373,-1.347 z m -3.126,0.618 v 0 l 2.168,11.715 1.077,-0.203 -2.17,-11.715 z m -2.213,4.703 v 0 l 1.039,-0.521 c -0.378,-1.267 -0.902,-2.182 -1.581,-2.792 -0.669,-0.593 -1.435,-0.855 -2.303,-0.746 -0.883,0.098 -1.578,0.454 -2.061,1.03 -0.5,0.593 -0.83,1.39 -0.999,2.406 -0.178,1.021 -0.19,2.094 -0.064,3.225 0.157,1.224 0.454,2.284 0.885,3.16 0.441,0.886 0.984,1.521 1.654,1.928 0.66,0.403 1.363,0.555 2.084,0.471 0.821,-0.098 1.483,-0.488 1.96,-1.153 0.494,-0.674 0.776,-1.568 0.871,-2.686 l -1.111,-0.233 c -0.085,0.877 -0.289,1.547 -0.601,1.978 -0.32,0.433 -0.75,0.683 -1.305,0.759 -0.637,0.071 -1.187,-0.076 -1.654,-0.462 -0.487,-0.385 -0.855,-0.941 -1.127,-1.643 -0.244,-0.717 -0.422,-1.458 -0.516,-2.242 -0.131,-1.013 -0.131,-1.894 -0.017,-2.673 0.111,-0.776 0.373,-1.378 0.746,-1.801 0.389,-0.424 0.839,-0.665 1.33,-0.725 0.601,-0.063 1.161,0.127 1.634,0.572 0.489,0.454 0.857,1.166 1.136,2.148 m -14.46,0.771 v 0 l 1.039,0.102 c 0.024,-0.597 0.135,-1.097 0.304,-1.483 0.161,-0.39 0.433,-0.711 0.797,-0.962 0.364,-0.245 0.789,-0.377 1.263,-0.389 0.42,-0.022 0.788,0.064 1.114,0.224 0.33,0.174 0.567,0.416 0.741,0.72 0.169,0.31 0.259,0.648 0.263,1.009 0.009,0.377 -0.047,0.703 -0.195,0.983 -0.135,0.288 -0.381,0.525 -0.72,0.729 -0.22,0.131 -0.704,0.347 -1.467,0.631 -0.745,0.288 -1.274,0.551 -1.575,0.792 -0.381,0.313 -0.666,0.695 -0.835,1.135 -0.199,0.45 -0.267,0.954 -0.262,1.5 0.028,0.602 0.169,1.166 0.418,1.678 0.255,0.504 0.619,0.898 1.086,1.161 0.465,0.251 0.978,0.373 1.534,0.357 0.605,-0.018 1.152,-0.187 1.61,-0.479 0.461,-0.293 0.813,-0.726 1.041,-1.289 0.229,-0.564 0.344,-1.194 0.344,-1.898 l -1.055,-0.076 c -0.043,0.75 -0.212,1.322 -0.517,1.716 -0.309,0.394 -0.784,0.606 -1.432,0.627 -0.662,0.017 -1.152,-0.136 -1.466,-0.479 -0.309,-0.339 -0.483,-0.754 -0.5,-1.249 0,-0.429 0.092,-0.789 0.288,-1.073 0.203,-0.279 0.754,-0.58 1.631,-0.902 0.877,-0.31 1.492,-0.589 1.822,-0.814 0.463,-0.33 0.805,-0.75 1.021,-1.254 0.208,-0.487 0.314,-1.046 0.28,-1.691 -0.005,-0.639 -0.153,-1.22 -0.423,-1.779 -0.264,-0.55 -0.645,-0.978 -1.14,-1.271 -0.479,-0.3 -1.014,-0.437 -1.606,-0.42 -0.75,0.022 -1.373,0.208 -1.873,0.539 -0.491,0.33 -0.864,0.813 -1.135,1.453 -0.268,0.644 -0.399,1.356 -0.395,2.152 m -12.657,-4.792 v 0 l -1.433,11.83 5.572,0.682 0.17,-1.398 -4.474,-0.53 0.438,-3.686 3.875,0.466 0.165,-1.389 -3.871,-0.466 0.651,-5.373 z m -9.519,3.953 v 0 c 0.316,-1.398 0.835,-2.436 1.545,-3.11 0.694,-0.686 1.465,-0.94 2.243,-0.758 0.811,0.191 1.365,0.742 1.72,1.674 0.316,0.932 0.316,2.144 -0.025,3.635 -0.214,0.94 -0.523,1.745 -0.902,2.398 -0.39,0.648 -0.841,1.123 -1.361,1.407 -0.506,0.292 -1.033,0.377 -1.569,0.245 -0.763,-0.169 -1.335,-0.691 -1.699,-1.567 -0.369,-0.864 -0.365,-2.173 0.048,-3.924 m -1.107,-0.22 v 0 c -0.452,1.919 -0.441,3.512 0.029,4.767 0.471,1.254 1.278,2.008 2.413,2.271 0.748,0.178 1.483,0.08 2.206,-0.301 0.705,-0.369 1.326,-0.979 1.859,-1.814 0.525,-0.843 0.928,-1.847 1.195,-3.004 0.267,-1.173 0.335,-2.271 0.229,-3.27 -0.106,-1.008 -0.418,-1.818 -0.924,-2.441 -0.5,-0.61 -1.097,-1.008 -1.792,-1.165 -0.771,-0.173 -1.504,-0.076 -2.233,0.322 -0.724,0.386 -1.345,1 -1.851,1.843 -0.524,0.843 -0.903,1.771 -1.131,2.792 m -8.894,-9.105 v 0 l -1.887,4.686 -5.519,5.182 1.22,0.495 2.86,-2.732 c 0.538,-0.509 1.053,-1.017 1.54,-1.551 0,0.67 0.028,1.44 0.068,2.296 l 0.184,3.852 1.191,0.478 -0.515,-7.605 1.875,-4.694 z m -6.76,-3.08 v 0 l -4.693,9.414 -2.45,-1.215 -0.627,1.245 5.876,2.931 0.636,-1.253 -2.442,-1.212 4.691,-9.423 z m -4.633,-2.505 v 0 l -5.906,10.343 0.946,0.555 5.922,-10.355 z m -9.149,-1.313 v 0 l 0.775,0.67 c 0.379,-0.466 0.729,-0.822 1.093,-1.047 0.371,-0.22 0.759,-0.33 1.22,-0.33 0.426,0.009 0.854,0.144 1.252,0.398 0.35,0.233 0.608,0.504 0.778,0.831 0.18,0.326 0.252,0.665 0.203,1.017 -0.042,0.351 -0.165,0.673 -0.349,0.979 -0.215,0.317 -0.456,0.542 -0.729,0.703 -0.286,0.143 -0.611,0.203 -1,0.169 -0.257,-0.017 -0.777,-0.115 -1.563,-0.305 -0.789,-0.199 -1.371,-0.284 -1.754,-0.25 -0.49,0.034 -0.933,0.186 -1.35,0.44 -0.394,0.271 -0.752,0.645 -1.049,1.09 -0.316,0.512 -0.529,1.046 -0.622,1.622 -0.072,0.564 -0.005,1.085 0.228,1.563 0.234,0.475 0.583,0.865 1.053,1.178 0.515,0.327 1.055,0.5 1.604,0.521 0.544,0.018 1.074,-0.135 1.593,-0.465 0.511,-0.331 0.966,-0.785 1.365,-1.36 l -0.817,-0.67 c -0.455,0.601 -0.942,0.97 -1.409,1.119 -0.495,0.144 -0.995,0.046 -1.529,-0.306 -0.563,-0.36 -0.874,-0.775 -0.932,-1.224 -0.074,-0.453 0.034,-0.894 0.305,-1.318 0.229,-0.359 0.507,-0.593 0.841,-0.712 0.331,-0.105 0.947,-0.046 1.857,0.186 0.906,0.243 1.548,0.369 1.946,0.369 0.583,0 1.097,-0.148 1.563,-0.436 0.462,-0.28 0.86,-0.699 1.21,-1.225 0.33,-0.546 0.553,-1.101 0.651,-1.711 0.088,-0.605 0.025,-1.173 -0.204,-1.691 -0.229,-0.512 -0.598,-0.94 -1.089,-1.253 -0.631,-0.416 -1.237,-0.619 -1.834,-0.64 -0.598,-0.009 -1.187,0.177 -1.773,0.546 -0.579,0.377 -1.102,0.89 -1.534,1.542 m -7.519,-2.444 v 0 l 1.85,1.465 c 0.394,0.318 0.646,0.615 0.777,0.912 0.121,0.292 0.136,0.609 0.058,0.958 -0.107,0.351 -0.257,0.673 -0.505,0.973 -0.349,0.442 -0.748,0.713 -1.19,0.827 -0.46,0.101 -0.918,-0.038 -1.398,-0.428 l -2.049,-1.632 z m 3.297,-5.898 v 0 l -7.437,9.317 2.871,2.293 c 0.589,0.465 1.089,0.728 1.521,0.804 0.441,0.076 0.917,-0.03 1.433,-0.309 0.514,-0.28 0.976,-0.674 1.385,-1.186 0.527,-0.661 0.824,-1.335 0.888,-2.03 0.063,-0.699 -0.166,-1.343 -0.695,-1.962 0.356,0.026 0.656,0.004 0.893,-0.059 0.515,-0.127 1.074,-0.348 1.699,-0.67 l 3.148,-1.635 -1.071,-0.865 -2.411,1.259 c -0.695,0.356 -1.237,0.631 -1.636,0.788 -0.398,0.179 -0.713,0.263 -0.938,0.28 -0.218,0.016 -0.413,-0.013 -0.587,-0.072 -0.116,-0.038 -0.285,-0.153 -0.51,-0.331 l -0.996,-0.797 3.302,-4.134 z m -5.638,-5.47 v 0 l -8.257,8.605 4.332,4.136 0.966,-1.005 -3.525,-3.389 2.525,-2.636 3.307,3.169 0.976,-1.012 -3.311,-3.173 2.822,-2.928 3.661,3.521 0.972,-1.013 z m -3.591,-4.194 v 0 l -11.091,5.406 0.767,0.885 7.956,-4.05 c 0.64,-0.33 1.229,-0.64 1.757,-0.949 -0.407,0.521 -0.802,1.059 -1.174,1.61 l -5.072,7.372 0.733,0.847 6.872,-10.261 z m -3.34,-4.393 v 0 l -9.665,6.986 0.646,0.885 9.665,-6.987 z m -4.813,-7.229 v 0 l -10.036,6.423 0.609,0.954 10.219,-1.382 -7.874,5.046 0.563,0.886 10.031,-6.427 -0.597,-0.95 -10.23,1.381 7.889,-5.037 z m -12.064,2.673 v 0 l 0.495,0.983 6.143,-3.093 c 1.068,-0.559 1.875,-1.063 2.416,-1.551 0.548,-0.487 0.906,-1.05 1.086,-1.677 0.176,-0.648 0.074,-1.314 -0.286,-2.025 -0.35,-0.7 -0.811,-1.183 -1.379,-1.445 -0.559,-0.263 -1.214,-0.33 -1.968,-0.187 -0.737,0.128 -1.68,0.488 -2.803,1.06 l -6.148,3.101 0.496,0.979 6.144,-3.098 c 0.928,-0.466 1.638,-0.75 2.131,-0.856 0.515,-0.096 0.947,-0.067 1.326,0.106 0.379,0.166 0.686,0.467 0.89,0.886 0.368,0.716 0.394,1.335 0.072,1.886 -0.316,0.542 -1.142,1.152 -2.476,1.834 z m 3.471,-23.713 v 0 l -11.48,3.181 0.301,1.081 10.169,1.707 -9.019,2.495 0.293,1.009 11.479,-3.174 -0.304,-1.088 -10.18,-1.699 9.019,-2.5 z m -8.128,-5.966 v 0 l 0.421,2.318 c 0.102,0.495 0.097,0.885 0,1.19 -0.093,0.305 -0.296,0.559 -0.582,0.763 -0.301,0.203 -0.632,0.338 -1.011,0.406 -0.564,0.106 -1.04,0.047 -1.446,-0.157 -0.418,-0.215 -0.661,-0.618 -0.782,-1.228 l -0.487,-2.576 z m 6.351,-2.305 v 0 l -11.724,2.174 0.67,3.622 c 0.135,0.721 0.349,1.254 0.623,1.606 0.285,0.33 0.707,0.563 1.282,0.695 0.573,0.118 1.19,0.118 1.825,0.012 0.835,-0.165 1.496,-0.474 2.011,-0.962 0.492,-0.478 0.744,-1.118 0.754,-1.932 0.252,0.259 0.485,0.429 0.703,0.539 0.477,0.237 1.049,0.453 1.729,0.605 l 3.454,0.819 -0.253,-1.335 -2.638,-0.631 c -0.767,-0.183 -1.355,-0.348 -1.758,-0.48 -0.417,-0.139 -0.714,-0.271 -0.894,-0.402 -0.18,-0.144 -0.29,-0.279 -0.398,-0.44 -0.057,-0.106 -0.117,-0.306 -0.165,-0.589 l -0.227,-1.255 5.197,-0.962 z m -0.989,-7.792 v 0 l -11.828,1.428 0.714,5.953 1.39,-0.17 -0.589,-4.855 3.633,-0.432 0.549,4.546 1.389,-0.17 -0.552,-4.546 4.035,-0.491 0.621,5.05 1.364,-0.165 z m -0.221,-8.469 v 0 l -11.912,0.386 0.038,1.088 4.911,-0.152 0.136,4.292 -4.911,0.156 0.033,1.097 11.919,-0.385 -0.042,-1.093 -5.61,0.186 -0.137,-4.296 5.605,-0.182 z m 0.462,-5.135 v 0 l -10.48,-0.792 0.203,-2.729 -1.398,-0.098 -0.492,6.546 1.399,0.11 0.2,-2.732 10.496,0.797 z m -11.155,-7.305 v 0 l -0.2,1.072 6.76,1.263 c 1.176,0.221 2.134,0.296 2.866,0.246 0.719,-0.06 1.337,-0.285 1.871,-0.691 0.519,-0.402 0.854,-0.992 1.004,-1.788 0.142,-0.758 0.068,-1.424 -0.222,-1.974 -0.292,-0.551 -0.763,-0.996 -1.443,-1.34 -0.691,-0.335 -1.652,-0.61 -2.889,-0.864 l -6.763,-1.241 -0.207,1.076 6.767,1.254 c 1.029,0.195 1.755,0.39 2.217,0.614 0.457,0.221 0.792,0.513 0.992,0.882 0.203,0.368 0.256,0.788 0.173,1.245 -0.144,0.802 -0.515,1.31 -1.09,1.543 -0.575,0.258 -1.604,0.233 -3.07,-0.038 z m 9.291,-12.804 v 0 c 1.383,0.394 2.383,0.958 3.04,1.695 0.646,0.742 0.864,1.508 0.631,2.297 -0.213,0.783 -0.796,1.334 -1.743,1.609 -0.943,0.293 -2.157,0.225 -3.638,-0.194 -0.924,-0.263 -1.715,-0.598 -2.336,-1.03 -0.632,-0.403 -1.093,-0.878 -1.356,-1.399 -0.257,-0.541 -0.309,-1.067 -0.159,-1.592 0.214,-0.746 0.752,-1.285 1.65,-1.624 0.883,-0.33 2.197,-0.249 3.911,0.238 m 0.281,-1.101 v 0 c -1.904,-0.529 -3.497,-0.602 -4.77,-0.195 -1.276,0.411 -2.072,1.186 -2.39,2.309 -0.212,0.733 -0.139,1.47 0.195,2.207 0.335,0.729 0.909,1.382 1.729,1.95 0.817,0.567 1.807,1.012 2.934,1.335 1.16,0.325 2.254,0.457 3.269,0.388 1.006,-0.067 1.837,-0.33 2.472,-0.796 0.635,-0.474 1.064,-1.05 1.259,-1.75 0.202,-0.746 0.135,-1.491 -0.219,-2.232 -0.345,-0.729 -0.934,-1.394 -1.75,-1.954 -0.816,-0.549 -1.714,-0.979 -2.729,-1.262 m 4.89,-7.169 v 0 l -0.494,0.91 c 0.534,0.259 0.948,0.551 1.244,0.865 0.29,0.305 0.479,0.678 0.553,1.115 0.091,0.432 0.033,0.885 -0.136,1.317 -0.15,0.391 -0.379,0.708 -0.65,0.933 -0.284,0.228 -0.612,0.359 -0.962,0.389 -0.345,0.031 -0.705,-0.021 -1.036,-0.158 -0.339,-0.139 -0.627,-0.33 -0.815,-0.571 -0.214,-0.249 -0.335,-0.556 -0.384,-0.954 -0.029,-0.257 -0.029,-0.786 0.005,-1.592 0.039,-0.804 0,-1.391 -0.098,-1.758 -0.136,-0.474 -0.373,-0.894 -0.704,-1.233 -0.34,-0.352 -0.767,-0.623 -1.262,-0.827 -0.582,-0.21 -1.137,-0.309 -1.714,-0.279 -0.574,0.017 -1.074,0.191 -1.497,0.521 -0.418,0.321 -0.727,0.75 -0.932,1.264 -0.238,0.581 -0.297,1.126 -0.219,1.673 0.093,0.54 0.354,1.029 0.782,1.465 0.417,0.445 0.943,0.792 1.593,1.076 l 0.496,-0.936 c -0.676,-0.33 -1.131,-0.711 -1.365,-1.161 -0.258,-0.444 -0.258,-0.966 -0.01,-1.56 0.251,-0.614 0.589,-1.007 1.021,-1.161 0.441,-0.142 0.888,-0.135 1.338,0.049 0.406,0.147 0.702,0.389 0.88,0.694 0.18,0.291 0.239,0.91 0.18,1.843 -0.058,0.944 -0.058,1.601 0.015,1.99 0.12,0.564 0.36,1.056 0.739,1.454 0.369,0.376 0.849,0.695 1.436,0.937 0.593,0.233 1.187,0.335 1.807,0.304 0.621,-0.034 1.15,-0.199 1.617,-0.529 0.458,-0.336 0.807,-0.754 1.017,-1.309 0.282,-0.7 0.364,-1.339 0.261,-1.924 -0.102,-0.593 -0.393,-1.135 -0.88,-1.63 -0.49,-0.501 -1.076,-0.902 -1.826,-1.217" /></g><g
           transform="translate(476.2451,365.7065)"
           id="g24"><path
             id="path26"
             style="fill:#ed7221;fill-opacity:1;fill-rule:nonzero;stroke:none"
             d="m 0,0 c -14.269,14.253 -33.217,22.112 -53.367,22.112 -20.149,0 -39.109,-7.859 -53.356,-22.112 -14.255,-14.249 -22.108,-33.2 -22.108,-53.355 0,-20.155 7.853,-39.105 22.108,-53.359 14.247,-14.248 33.207,-22.096 53.356,-22.096 20.15,0 39.098,7.848 53.367,22.096 14.244,14.254 22.101,33.204 22.101,53.359 C 22.101,-33.2 14.244,-14.249 0,0 m -1.127,-105.596 v 0 c -13.947,-13.956 -32.501,-21.639 -52.24,-21.639 -19.737,0 -38.29,7.683 -52.244,21.639 -13.962,13.948 -21.636,32.505 -21.636,52.241 0,19.735 7.674,38.288 21.636,52.245 13.954,13.957 32.512,21.642 52.244,21.642 19.734,0 38.293,-7.685 52.24,-21.642 13.957,-13.957 21.642,-32.51 21.642,-52.245 0,-19.736 -7.685,-38.293 -21.642,-52.241" /></g><g
           transform="translate(501.7686,391.2466)"
           id="g28"><path
             id="path30"
             style="fill:#ed7221;fill-opacity:1;fill-rule:nonzero;stroke:none"
             d="m 0,0 c -21.066,21.079 -49.093,32.679 -78.891,32.679 -29.8,0 -57.813,-11.613 -78.887,-32.679 -21.074,-21.078 -32.681,-49.093 -32.681,-78.896 0,-29.802 11.607,-57.816 32.681,-78.891 21.074,-21.073 49.087,-32.674 78.887,-32.674 29.798,0 57.825,11.601 78.891,32.674 21.074,21.075 32.684,49.089 32.684,78.891 C 32.684,-49.093 21.074,-21.078 0,0 m -1.987,-155.8 v 0 c -20.536,-20.544 -47.847,-31.857 -76.904,-31.857 -29.05,0 -56.361,11.313 -76.9,31.857 -20.54,20.538 -31.851,47.852 -31.851,76.904 0,29.053 11.311,56.369 31.851,76.904 20.539,20.541 47.85,31.867 76.9,31.867 29.057,0 56.368,-11.326 76.904,-31.867 20.54,-20.544 31.841,-47.855 31.841,-76.904 0,-29.043 -11.301,-56.366 -31.841,-76.904" /></g><g
           transform="translate(353.4473,243.3867)"
           id="g32"><path
             id="path34"
             style="fill:#ed7221;fill-opacity:1;fill-rule:evenodd;stroke:none"
             d="m 0,0 -0.472,0.28 0.18,0.616 c 0.082,0.248 0.136,0.291 0.059,0.567 -0.15,0.465 -0.48,0.592 -0.69,0.936 0.292,0.572 0.879,0.842 1.427,1.212 0.316,0.202 0.346,0.215 0.677,0.474 0.461,0.36 0.484,0.246 0.8,0.576 0.102,0.699 -0.36,0.809 0,1.67 0.398,0.165 0.398,0.089 0.797,0.135 L 5.123,6.708 C 4.885,5.707 3.4,4.038 2.685,3.284 2.224,2.776 0.737,0.289 0,0 m -1.521,7.767 v 0 l 0.763,1.208 1.924,0.173 C 1.665,9.178 2.694,9.343 3.138,8.932 2.875,8.199 2.778,8.555 2.083,8.262 1.48,8.013 1.583,7.937 0.869,7.877 0.241,7.817 -0.864,6.915 -1.521,7.767 M -6.694,4.368 v 0 c 0.574,0.018 1.326,-0.037 2.22,-0.037 0.417,0 0.733,-0.022 1.176,-0.025 0.51,0 0.709,0.003 1.179,-0.424 C -2.366,3.437 -2.4,3.318 -2.832,3.233 L -3.021,3.216 C -3.877,3.153 -6.425,3.813 -6.694,4.368 m 2.953,3.069 v 0 C -4.226,6.585 -4.474,7.004 -5.203,6.941 -5.726,6.89 -6.213,6.64 -6.824,6.737 -7.028,6.768 -7.402,6.83 -7.615,6.868 -7.942,6.961 -8.101,7.106 -8.438,7.106 -9.145,7.106 -9.743,6.292 -9.262,5.144 -8.603,3.546 -9.238,3.717 -7.762,3.115 -6.8,2.708 -4.857,2.204 -4.362,1.373 -4.449,1.061 -5.012,0.433 -5.605,0.598 -5.849,0.679 -5.699,0.657 -5.94,0.76 L -6.267,0.887 C -6.762,0.043 -6.082,0.463 -6.8,-0.894 l 1.146,-1.13 c 2.002,0.804 1.292,3.245 3.362,2.553 0.708,-0.231 0.786,-0.053 1.398,-0.139 0.756,-1.457 -0.35,-1.127 -0.767,-2.567 -0.311,-1.089 0.956,-2.293 0.956,-2.293 1.044,-0.1 1.758,1.395 2.434,2.293 L 3.998,0.712 C 4.356,1.174 5.273,2.055 6.201,3.297 6.605,3.813 6.93,3.95 7.463,4.514 7.988,5.068 8.192,5.39 8.669,6.059 c 0.335,0.475 0.763,0.789 1.157,1.323 0.693,0.948 0.568,1.076 0.3,1.525 -0.781,1.27 -0.781,2.047 -2.186,2.195 -0.578,0.045 -0.826,-0.197 -1.326,-0.179 l -2.927,0.094 c -0.632,-0.009 -0.969,-0.131 -1.496,0.19 0.503,0.521 0.587,0.576 1.244,0.678 0.643,0.094 0.717,0.28 1.304,0.331 2.332,0.24 0.33,0.274 2.822,-0.013 0.612,-0.077 0.928,0.122 1.288,0.741 0.65,1.149 -0.278,0.466 0.155,2.216 0.131,0.535 0.087,0.368 0.383,0.627 0.632,0.568 0.739,0.538 1.206,1.41 C 9.86,19.135 9.135,18.669 9.135,18.669 9.16,18.626 9.067,18.618 9.057,18.613 l -3.24,-2.288 c -1.379,-0.869 -4.395,0.009 -5.836,0.594 -0.739,0.309 -0.341,-0.065 -1.021,0.27 l -3.114,1.327 c -0.631,0.162 -0.475,0.199 -0.995,0.038 -0.403,-0.098 -0.516,-0.215 -0.791,-0.673 0.297,-0.726 0.275,-0.928 1.155,-1.491 1.326,-0.862 4.939,-1.853 5.552,-2.59 -0.03,-0.271 0.161,-0.037 -0.195,-0.402 -0.29,-0.335 -2.311,-1.06 -2.672,-0.992 -0.838,0.14 -0.578,0.699 -1.669,0.161 -0.701,-0.351 -0.856,-0.784 -1.516,-0.893 -0.414,-0.06 -0.38,-0.015 -0.763,-0.128 -0.514,-0.161 -0.267,-0.14 -0.839,-0.165 -1.851,-0.086 -0.927,-0.373 -2.381,-0.326 -0.64,0.025 -1.131,-0.187 -1.612,-0.169 -0.504,0.019 -0.627,0.169 -0.937,0.224 -0.781,0.119 -2.468,-1.373 -0.893,-2.496 1.423,-1.017 1.067,1.127 6.507,0.949 0.56,-0.038 1.244,-0.124 1.563,-0.656 0.147,-0.224 0.166,-0.449 0.312,-0.72 0.214,-0.382 0.369,-0.449 0.587,-0.75" /></g><g
           transform="translate(493.0664,254.6816)"
           id="g36"><path
             id="path38"
             style="fill:#ed7221;fill-opacity:1;fill-rule:evenodd;stroke:none"
             d="m 0,0 c 0.274,1.285 -0.246,0.878 0.996,1.455 0.27,-0.784 -0.115,-1.001 -0.42,-1.64 -0.339,-0.751 0.009,-1.06 -0.84,-1.516 l -0.025,0.923 C -0.199,-0.262 -0.128,-0.555 0,0 m -4.195,2.391 v 0 c -0.263,0.475 -0.101,1.033 0.296,1.483 0.263,-0.609 0.254,-1.076 -0.296,-1.483 m 0.486,-12.03 v 0 c 0,0.04 0,0.09 0.014,0.119 0.007,0.018 0.007,0.078 0.025,0.106 l 0.407,2.595 c 0.212,1.889 0.39,1.105 0.627,2.613 0.356,2.183 0.776,1.776 0.822,2.729 0.085,1.012 0.389,0.418 0.716,1.312 0.309,0.87 -0.241,0.356 0.763,1.183 0.352,-2.021 -1.038,-2.389 0.071,-3.495 -0.304,-0.39 -0.855,-1.984 -1,-2.487 -0.261,-0.861 -0.406,-1.468 -0.99,-2.381 -0.898,-1.416 -0.958,-0.942 -0.602,-1.568 1.119,0.025 1.763,1.457 2.288,2.157 0,0.14 1.05,1.995 1.211,2.343 0.34,0.775 0.509,1.778 1.331,2.478 C 2.448,-3.597 0.957,-5.48 1.118,-6.091 1.364,-6.964 2.024,-6.867 1.995,-7.383 2.076,-7.951 2.131,-7.498 1.712,-8.062 l -1.525,-1.91 c -0.476,-0.725 -2.263,-1.996 -2.399,-2.403 1.288,-1.563 5.533,4.293 6.702,4.293 0.273,-0.068 0.056,0.143 0.467,-0.314 0.123,-0.131 0.211,-0.281 0.271,-0.423 0.355,-0.788 0.148,-1.793 -0.465,-2.459 0.533,-0.465 -0.018,0.129 0.414,-0.253 0.474,-0.407 0.094,-0.501 0.754,-1.273 1.686,0.009 3.356,0.481 2.78,2.527 -0.128,0.47 -0.115,0.707 -0.297,1.152 -0.412,0.937 -1.534,2.106 -1.593,3.203 2.466,2.183 5.143,2.889 3.399,4.588 C 9.804,-0.944 9.77,-1.138 9.536,-0.63 9.465,-0.478 9.583,0.251 8.838,-0.066 8.139,-0.364 7.503,-1.38 6.909,-1.905 5.829,-2.837 4.957,-3.91 4.804,-4.028 4.101,-3.846 3.897,-3.668 3.871,-2.817 L 3.609,0.641 C 3.622,1.195 3.321,1.933 2.724,2.149 1.947,2.417 1.83,1.699 1.135,1.662 0.788,2.271 1.228,2.616 1.529,3.115 1.762,3.505 2.189,4.03 2.466,4.492 2.702,4.887 2.559,4.849 2.728,5.269 2.881,5.599 2.974,5.611 3.033,5.933 3.117,6.265 2.939,7.75 1.812,7.013 1.664,6.916 1.401,6.691 1.253,6.581 0.889,6.29 0.49,6.042 0.169,5.695 -0.187,5.297 -1.145,1.35 -2.237,0.285 -2.687,0.954 -2.365,0.294 -2.374,0.797 l 0.319,1.378 c 0.707,2.789 0.309,1.836 0.546,3.742 0.118,0.877 0.763,1.037 0.191,1.864 -0.844,0.279 -1.2,-0.145 -1.894,-0.214 -0.551,1.048 1.423,1.845 -0.632,2.312 L -4.737,9.873 c -0.399,0.801 -0.221,1.004 -1.208,1.174 C -7.499,10.2 -6.275,8.84 -6.06,7.691 -5.924,7.044 -6.128,7.383 -6.166,6.819 -6.232,6.067 -5.945,7.021 -6.322,5.624 -6.356,5.519 -6.368,5.36 -6.415,5.247 -6.534,4.904 -6.645,4.768 -6.991,4.557 -7.433,4.827 -7.255,5.061 -7.971,5.138 -9.373,5.269 -9.414,3.722 -9.305,2.807 -9.729,2.505 -9.924,2.552 -10.322,2.417 l -0.211,-0.666 c -0.306,-1.173 1.127,-2.878 1.834,-3.774 0.496,-0.612 0.547,-1.184 0.83,-1.412 0.25,-0.177 0.937,-0.287 1.377,-0.177 0.915,0.212 0.889,0.339 1.204,0.96 0.551,1.086 0.915,0.475 0.678,1.34 -0.097,0.376 -0.712,0.903 0.255,1.038 l -0.027,-0.589 v -0.09 c -0.076,-2.3 -0.589,-2.893 -0.542,-3.452 0.114,-1.343 -0.983,-3.004 -1.296,-3.949 -0.509,-1.615 0.729,-2.156 1.127,-2.412 0.585,0.433 1.033,0.731 1.384,1.127" /></g><g
           transform="translate(419.8252,265.6475)"
           id="g40"><path
             id="path42"
             style="fill:#ed7221;fill-opacity:1;fill-rule:nonzero;stroke:none"
             d="m 0,0 v 19.923 c -0.087,1.381 -1.259,2.478 -2.648,2.478 l 0.063,0.033 c -7.732,0.179 -14.816,0.959 -20.53,2.145 -0.523,0.102 -1.243,0.085 -1.549,-0.445 -0.334,-0.56 -0.188,-0.988 0,-1.657 0.181,-0.669 1.026,-3.487 1.026,-3.487 0.537,-2.376 3.705,-2.945 5.72,-3.376 l 9.016,-1.945 c 4.326,-0.945 5.517,-4.314 5.517,-8.763 V 0.987 0.944 c 0,-3.468 -0.583,-5.71 -2.882,-5.81 -2.923,-0.137 -5.05,2.777 -6.186,5.311 -0.033,0.051 -0.059,0.11 -0.074,0.159 l -0.042,0.087 c -0.098,0.228 -0.191,0.445 -0.267,0.649 -0.773,1.916 -2.494,6.1 -2.494,6.1 0,0 -0.226,0.75 -0.587,0.993 -0.359,0.261 -0.684,0.342 -1.135,0.342 h -3.05 l 3.934,-13.618 c 0.801,-2.783 1.788,-5.999 3.991,-8.057 2.7,-2.542 7.115,-3.925 12.973,-3.925 5.862,0 10.276,1.383 12.984,3.925 2.195,2.058 3.186,5.274 4,8.057 L 21.699,8.775 H 18.644 C 18.207,8.775 17.877,8.694 17.509,8.433 17.152,8.19 16.924,7.44 16.924,7.44 c 0,0 -1.712,-4.184 -2.484,-6.1 C 14.348,1.136 14.263,0.919 14.17,0.691 L 14.136,0.604 C 14.11,0.555 14.094,0.496 14.067,0.445 12.915,-2.089 10.78,-5.003 7.856,-4.866 c -2.3,0.1 -2.873,2.342 -2.873,5.81 v 0.043 3.919 c 0,4.449 1.179,7.818 5.535,8.763 l 8.99,1.945 c 2.021,0.431 5.186,1 5.728,3.376 0,0 0.835,2.818 1.027,3.487 0.186,0.669 0.342,1.097 0,1.657 -0.307,0.53 -1.014,0.547 -1.552,0.445 -5.72,-1.186 -12.782,-1.966 -20.523,-2.145 l 0.058,-0.033 c -1.401,0 -2.56,-1.097 -2.653,-2.478 L 1.593,0 C 1.593,-0.439 1.239,-0.804 0.796,-0.804 0.364,-0.804 0,-0.439 0,0" /></g><g
           transform="translate(421.083,367.6982)"
           id="g44"><path
             id="path46"
             style="fill:#ed7221;fill-opacity:1;fill-rule:nonzero;stroke:none"
             d="m 0,0 c 0,0 -6.109,-3.419 -8.311,-8.021 -0.928,-1.953 -0.393,-3.211 3.153,-1.021 5.027,3.098 9.567,5.44 14.96,7.364 C 15.76,0.419 26.669,2.974 27.445,2.601 27.771,2.44 27.792,1.826 27.156,1.249 11.717,-12.94 10.057,-23.506 14.269,-25.172 c 2.067,-0.83 5.575,-0.356 8.71,0.674 3.126,1.02 6.177,2.343 9.694,2.449 8.24,0.254 11.693,-15.376 2.787,-30.18 -4.99,-8.317 -18.277,-18.875 -19.227,-18.485 -0.423,0.173 -0.576,0.639 -0.385,1.406 0.124,0.509 4.893,11 1.114,12.669 -0.593,0.263 -2.071,-0.156 -3.469,-3.487 -1.81,-4.313 -3.181,-5.101 -3.921,-4.923 -0.745,0.182 -0.486,1.368 -0.359,2.169 0.106,0.805 0.284,1.487 -0.174,1.19 -0.431,-0.292 -4.685,-5.062 -6.017,-4.965 -0.49,0.051 -0.783,0.563 -0.473,1.275 0.288,0.708 0.618,1.665 0.618,1.665 0,0 -7.319,-7.109 -16.266,-8.817 -0.667,-0.135 -2.438,-0.564 -3.012,-0.263 -0.311,0.157 -0.514,0.899 0.049,1.289 0.583,0.385 10.059,5.287 14.162,12.193 1.243,2.098 1.262,3.161 0.934,3.725 -0.826,1.415 -4.868,0.013 -7.51,-1.119 -2.652,-1.126 -6.62,-3.44 -11.67,-4.292 -6.26,-1.076 -13.722,0.834 -17.582,5.635 -4.448,5.542 -4.717,10.995 -4.08,16.52 1.973,17.338 18.539,28.323 24.288,31.862 6.936,4.274 17.223,8.723 18.016,8.393 C 0.894,1.249 1.078,0.644 0,0" /></g><g
           transform="translate(471.999,244.04)"
           id="g48"><path
             id="path50"
             style="fill:#ed7221;fill-opacity:1;fill-rule:evenodd;stroke:none"
             d="M 0,0 C 0.354,-0.818 0.739,-0.853 1.136,-1.551 0.983,-2.076 0.679,-2.648 0.488,-3.199 0.195,-4.077 0.373,-4.208 -0.405,-4.814 c -1.009,1.3 -0.78,3.594 -1.273,4.955 -0.919,2.546 -3.55,2.074 -3.727,0.426 -0.11,-1.24 1.439,-2.322 2.415,-5.011 0.55,-1.523 0.792,-3.119 0.233,-4.653 -0.902,-2.516 -3.793,-4.605 -5.86,-6.258 -2.389,-1.893 -0.009,-3.347 1.474,-2.766 0.957,0.377 1.678,1.038 2.386,1.793 1.064,1.103 2.91,4.474 3.526,3.824 0.698,-0.72 -0.286,0.581 0.147,-0.169 0.195,-0.308 0.077,-0.707 0.094,-1.098 0.017,-0.795 -0.315,-2.025 -0.814,-2.681 l -4.669,-4.962 c -0.567,-0.474 -1.118,-0.698 -1.177,-1.202 0.237,0.025 -0.009,-0.052 0.308,0.122 0.047,0.03 0.182,0.115 0.229,0.158 1.378,0.902 1.013,0.705 2.665,0.965 1.898,0.28 3.195,1.42 4.457,3.153 2.517,3.478 1.681,4.545 1.229,7.672 -0.085,0.589 -0.229,1.585 -0.059,2.072 l 2.631,5.44 C 4.538,-1.407 5.669,-0.521 3.891,0.567 3.271,0.937 2.648,1.021 2.001,0.872 1.594,0.784 0.137,0.106 0,0" /></g><g
           transform="translate(476.3809,234.9258)"
           id="g52"><path
             id="path54"
             style="fill:#ed7221;fill-opacity:1;fill-rule:evenodd;stroke:none"
             d="m 0,0 c -0.288,-0.101 0.237,0.229 -0.436,-0.147 -0.158,-0.098 -0.224,-0.145 -0.361,-0.263 -0.254,-0.213 -0.457,-0.471 -0.66,-0.687 -3.475,-3.957 2.363,-2.589 4.854,-2.86 0.281,-0.03 0.458,0 0.755,-0.016 2.813,-0.224 2.877,-0.959 3.457,1.318 C 7.966,-1.283 6.313,-0.051 6.033,0.199 4.711,1.369 5.245,1.983 3.151,1.514 2.378,1.323 2.288,1.084 1.551,0.822 -0.047,0.251 0.729,0.251 0,0" /></g><g
           transform="translate(432.8262,214.9834)"
           id="g56"><path
             id="path58"
             style="fill:#ed7221;fill-opacity:1;fill-rule:nonzero;stroke:none"
             d="m 0,0 c 0,-0.013 -0.061,-0.576 -0.043,-0.576 -0.83,0.477 -1.56,0.653 -1.568,0.653 -0.02,0.045 1.17,2.173 1.195,2.22 0.013,0.025 0.018,0.038 0.025,0.047 0.009,0.01 0.035,0.01 0.052,0.016 C -0.339,2.344 0.017,0.122 0,0 m 2.118,5.136 v 0.01 C 2.224,5.283 2.339,5.419 2.385,5.56 2.644,6.359 3.715,6.961 4.282,8.212 4.329,8.305 4.499,8.529 4.381,8.512 4.262,8.499 2.348,6.687 2.236,6.597 2.148,6.521 2.075,6.473 2.021,6.44 1.999,7.173 1.838,8.004 1.838,8.032 v 0.273 0.057 c -0.026,0.116 0,0.167 0.115,0.214 0.02,0.009 0.068,0.028 0.068,0.045 0.012,0.068 0.063,0.09 0.097,0.12 0.084,0.075 0.178,0.156 0.279,0.202 0.103,0.051 0.195,0.107 0.285,0.159 0.114,0.057 0.236,0.113 0.351,0.16 0.135,0.054 0.28,0.111 0.411,0.17 0.009,0.007 0.022,0.016 0.031,0.016 1.761,1.208 0.296,1.547 0.274,1.547 C 3.661,11.012 3.16,11.16 1.787,10.74 1.694,10.724 1.555,10.943 1.551,11.046 c -0.009,0.071 -0.043,0.142 -0.026,0.211 0,0.009 -0.073,1.448 -0.107,1.59 0,0.049 -0.011,0.106 -0.011,0.165 -0.009,0.081 -0.009,0.165 0,0.246 0,0.008 0,0.019 -0.009,0.028 0.009,0.064 0.016,0.128 0.02,0.191 0.03,0.05 0.03,0.102 0.021,0.149 0.069,0.682 0.06,0.961 -0.668,1.313 -0.932,0.445 -2.357,0.427 -2.97,-0.03 -0.489,-0.351 -0.48,-0.67 -0.25,-1.216 0.025,-0.051 0.043,-0.101 0.068,-0.139 0.032,-0.072 0.067,-0.153 0.113,-0.228 0,-0.031 0.014,-0.057 0.022,-0.077 0.034,-0.09 0.728,-3.335 0.746,-3.419 0.004,-0.048 0.008,-0.084 0.017,-0.124 0.008,-0.102 0.008,-0.208 0.021,-0.309 0.013,-0.169 0.022,-0.33 0.034,-0.5 0,-0.043 0,-0.068 -0.047,-0.093 C -1.483,8.795 -1.5,8.77 -1.505,8.75 -1.505,8.673 -1.552,8.619 -1.594,8.562 -1.618,8.499 -2.394,7.981 -3.203,7.44 -3.542,7.207 -3.75,6.846 -4.056,6.631 -4.534,6.316 -5.051,6.194 -5.08,6.157 -5.089,6.148 -5.11,6.14 -5.127,6.126 -5.229,6.08 -5.331,6.029 -5.406,5.952 -5.466,5.906 -5.518,5.855 -5.568,5.793 c -0.059,-0.074 -0.084,-0.217 0,-0.239 0.407,-0.068 0.373,-1.173 0.949,-1.096 0.008,-0.009 0.016,-0.022 0.034,-0.025 0.144,-0.052 0.293,-0.121 0.449,-0.158 0.047,-0.004 0.271,0.037 0.33,0.064 0.027,0.02 0.547,0.372 1.077,0.893 0.567,0.564 1.347,0.908 1.373,0.934 0.008,0.02 0.05,0.041 0.068,0.041 0.043,0 0.084,0.017 0.109,0.047 0.06,0.037 0.112,0.077 0.161,0.109 0.017,0.018 0.035,0.018 0.051,0.018 0.009,-0.022 0.018,-0.042 0.018,-0.068 0,-0.127 0.012,-0.254 0.012,-0.38 -0.012,-0.155 0.25,-1.828 0.234,-1.98 -0.018,-0.084 -0.018,-0.161 -0.03,-0.238 0,-0.058 -0.031,-0.11 -0.081,-0.156 -0.043,-0.043 -0.076,-0.101 -0.123,-0.14 -0.089,-0.094 -3.012,-3.398 -3.05,-3.44 -0.056,-0.065 -0.106,-0.11 -0.183,-0.14 -0.017,-0.004 -0.034,-0.022 -0.047,-0.034 -0.066,-0.064 -0.105,-0.165 -0.181,-0.216 -0.009,0 -0.009,-0.005 -0.018,-0.009 -0.009,-0.075 -0.059,-0.097 -0.135,-0.118 -0.06,-0.013 -0.461,-0.688 -0.47,-1.047 0,-0.36 0.397,-0.594 0.487,-0.97 0.109,-0.508 0.619,-0.678 0.945,-0.639 0.445,0.05 0.75,0.385 0.776,0.406 0.034,0.026 0.944,2.338 0.965,2.398 0.018,0.089 0.991,-0.681 1.407,-1.271 0.173,-0.254 0.483,-0.715 0.373,-1.305 -0.119,-0.661 0.432,-1.347 1.122,-1.339 1.03,0.022 2.048,1.509 1.823,3.207 C 2.703,0.174 2.744,0.474 2.744,0.542 2.736,0.686 2.694,0.831 2.669,0.971 v 0.181 c 0,0.165 -0.013,0.33 -0.047,0.495 C 2.601,1.737 2.189,4.902 2.177,4.944 2.168,5.013 2.144,5.08 2.118,5.136" /></g><g
           transform="translate(443.291,218.3857)"
           id="g60"><path
             id="path62"
             style="fill:#ed7221;fill-opacity:1;fill-rule:nonzero;stroke:none"
             d="m 0,0 c 0,0 0.687,-2.17 0.712,-2.141 0.017,0.013 0.741,-0.372 0.754,-0.377 0.067,-0.049 0.136,-0.071 0.221,-0.079 0.02,0 0.053,-0.021 0.062,-0.03 0.056,-0.047 0.106,-0.068 0.165,-0.077 0.03,-0.013 0.052,-0.025 0.077,-0.029 0.056,-0.021 0.101,-0.055 0.148,-0.059 0.055,-0.009 1.819,-0.767 3.047,-1.105 1.229,-0.345 1.923,-0.268 1.983,-0.302 0.008,-0.009 0.016,-0.018 0.024,-0.009 0.099,0.009 0.187,0.025 0.281,0.047 0.059,0.017 0.127,0.03 0.186,-0.004 0.03,-0.018 0.06,-0.018 0.084,-0.018 0.111,0 0.938,0.061 0.992,0.564 0.081,0.03 0.094,0.118 0.136,0.186 0.042,0.069 0.08,0.886 1.279,1.624 0.578,0.343 1.339,0.568 1.272,0.822 -0.344,1.22 -4.131,0.927 -4.279,0.923 -0.085,0 -5.035,0.369 -5.221,0.39 C 1.932,0.347 0,0 0,0" /></g><g
           transform="translate(443.2314,219.6729)"
           id="g64"><path
             id="path66"
             style="fill:#ed7221;fill-opacity:1;fill-rule:nonzero;stroke:none"
             d="m 0,0 -0.501,-0.639 c -0.352,-0.11 -1.296,0.068 -1.305,0.084 0.022,0 -0.754,0.136 -0.585,0.301 0.052,0.051 2.633,1.623 3.019,1.682 C 0.788,1.442 0.517,0.746 0,0 m 4.771,-1.758 1.168,0.199 C 4.56,-1.443 3.246,-1.194 2.55,-1.003 2.584,-0.953 4.495,2.745 4.5,2.751 4.694,3.178 4.644,3.317 4.474,3.767 4.448,3.747 4.165,4.721 3.097,4.525 3.034,4.517 1.389,3.78 1.263,3.713 1.245,3.698 1.008,3.645 0.911,3.619 0.864,3.602 0.839,3.585 0.806,3.563 0.78,3.551 0.746,3.533 0.694,3.508 0.707,3.567 0.707,3.602 0.721,3.645 0.729,3.713 0.568,4.826 0.551,4.937 0.538,5.005 0.433,5.555 0.64,5.916 0.864,6.317 4.687,7.928 4.804,8.064 5.873,9.191 5.132,9.462 4.597,10.364 4.398,10.726 3.745,10.631 2.571,10.287 2.381,10.237 0.542,9.359 0.5,9.342 0.482,9.339 0.491,9.258 0.482,9.275 0.466,9.288 0.466,9.318 0.466,9.339 V 9.47 c 0,0.068 -0.352,2.166 -0.399,2.207 -0.041,0.039 -0.288,0.619 -1.296,0.671 -0.204,0.003 -0.668,-0.031 -0.876,-0.074 -0.2,-0.034 -0.637,-0.296 -0.81,-0.33 -0.33,-0.063 -0.457,-0.445 -0.466,-0.453 -0.021,-0.017 -0.029,-0.06 -0.056,-0.068 -0.046,-0.029 -0.034,-0.076 -0.046,-0.114 -0.017,-0.072 0.034,-0.08 0.073,-0.11 0.02,-0.009 0.029,-0.012 0.047,-0.017 0.143,-0.089 0.236,-0.195 0.222,-0.369 0,-0.165 0.489,-3.38 0.494,-3.508 0,-0.158 0.012,-0.309 -0.047,-0.461 C -2.708,6.81 -2.721,6.771 -2.729,6.732 -2.755,6.645 -2.763,6.567 -2.771,6.479 -2.778,6.419 -2.796,6.365 -2.839,6.317 -2.873,6.284 -2.907,6.254 -2.937,6.22 -3.004,6.141 -4.936,4.254 -5.034,4.179 -5.084,4.14 -5.118,4.105 -5.178,4.08 -5.253,4.052 -5.347,4.052 -5.431,4.021 -5.847,3.924 -5.94,3.36 -5.966,3.323 -5.99,3.28 -5.99,3.225 -5.981,3.169 c 0.006,-0.042 0,-0.201 0.049,-0.21 0.017,-0.006 0.212,-0.657 0.632,-0.526 0.75,0.237 0.991,-0.28 1.445,0.119 0.012,0.009 0.034,0.011 0.05,0.028 0.017,0.015 0.034,0.024 0.06,0.034 0.127,0.069 0.631,0.763 0.685,0.815 0.123,0.128 0.416,0.563 0.535,0.685 0.016,0.006 0.034,0.006 0.034,0.013 0,0.068 0.208,-1.757 0.216,-1.796 -0.004,-0.009 0.026,-0.098 0.046,-0.555 0.046,-1.301 -2.974,-2.204 -3.126,-2.223 -0.027,0 -0.382,-0.108 0.19,-0.438 0.174,-0.097 0.919,-0.525 2.148,-0.797 0.721,-0.152 1.288,-0.516 1.339,-0.524 0.009,-0.034 0.127,-0.043 0.192,-0.086 -0.022,-0.03 -0.048,-0.059 -0.061,-0.075 -0.013,-0.03 -0.038,-0.056 -0.055,-0.086 -0.034,-0.038 -0.058,-0.072 -0.084,-0.113 -0.021,-0.038 -0.051,-0.078 -0.077,-0.116 -0.047,-0.075 -0.677,-0.94 -1.774,-1.046 -0.038,-0.012 -0.072,0.004 -0.115,0 -0.144,-0.021 -4.144,0.39 -4.219,0.377 -0.018,-0.003 -0.378,0.093 -0.386,0.093 l 0.063,-0.39 c 0.012,0 0.364,-0.105 0.373,-0.101 0.106,0.03 1.779,-0.467 1.881,-0.445 0.008,0 0.012,-0.013 0.012,-0.013 0.038,-0.037 2.089,-0.804 2.115,-0.834 0.008,0 0.008,-0.009 0.008,-0.013 -0.016,-0.017 -0.03,-0.03 -0.05,-0.047 0.034,-0.062 0.101,-0.034 0.147,-0.068 -0.063,-0.041 -0.122,-0.067 -0.161,-0.059 -0.135,0.052 -0.27,0.018 -0.409,0.052 -0.022,0 -0.043,-0.009 -0.056,-0.009 0.047,-0.051 0.114,-0.059 0.147,-0.098 0.035,-0.038 0.095,-0.034 0.136,-0.06 0.051,-0.024 0.607,-0.368 0.704,-0.435 0.016,-0.022 0.05,-0.034 0.084,-0.03 0.122,0 0.259,0.004 0.399,0.008 0.077,0 0.148,-0.016 0.217,-0.059 0.054,-0.035 0.1,-0.093 0.156,-0.038 0.012,0.003 0.025,0 0.034,0 0.034,-0.009 0.906,-0.427 1.72,0.097 0.508,0.326 1.033,1.127 1.025,1.149 0.029,0.008 0.593,1.131 0.652,1.181 0.009,0.013 0.043,0.013 0.052,0 0.054,-0.046 0.127,-0.076 0.202,-0.084 0.017,0 0.043,-0.009 0.051,-0.03 0.018,-0.013 4.043,-0.233 4.377,-0.309 0.013,-0.012 -0.013,0 0,0 z" /></g><g
           transform="translate(407.5615,221.5547)"
           id="g68"><path
             id="path70"
             style="fill:#ed7221;fill-opacity:1;fill-rule:evenodd;stroke:none"
             d="M 0,0 C -0.083,0.216 -0.147,0.44 -0.034,0.732 0.107,1.08 0.243,1.077 0.661,1.097 0.506,0.576 0.553,0.038 0,0 M 7.323,4.386 C 6.958,5.056 6.158,4.979 5.951,4.359 5.62,3.402 6.105,3.547 5.147,2.847 4.768,2.568 4.287,2.03 3.944,1.849 2.885,1.301 2.404,0.897 2.404,0.897 2.317,1.678 2.667,3.325 2.957,3.704 4.075,5.161 3.453,3.974 4.328,5.859 4.842,6.986 5.274,8.212 5.372,9.521 5.425,10.397 5.654,11.058 5.673,11.732 5.711,12.799 4.817,14.837 3.982,15.07 3.73,14.065 3.817,12.597 3.745,11.52 3.656,10.104 3.336,9.478 3.167,8.254 3.01,7.203 1.815,4.054 1.442,3.521 1.138,3.08 1.209,3.175 0.908,3.102 0.334,4.229 1.296,4.424 1.724,4.979 1.976,5.855 1.734,6.491 0.976,6.665 0.093,6.873 -0.331,6.453 -0.68,5.943 -1.136,5.296 -1.497,5.131 -1.962,4.732 -2.563,4.236 -2.589,3.64 -3.4,3.64 c -0.248,0.491 -0.005,0.289 -0.422,1.199 -0.233,0.538 -0.074,0.652 0.169,1.25 0.312,0.763 0.083,0.542 0,1.215 -0.063,0.529 0.093,1.092 -0.004,1.585 l -0.199,0.619 c -0.564,1.581 -2.536,1.356 -3.294,0.733 L -7.451,9.979 C -7.703,9.774 -7.548,9.939 -7.767,9.737 -9.052,8.55 -9.218,7.717 -10.078,7.038 -10.753,6.5 -10.913,6.055 -12.711,4.686 c -0.53,-0.411 -1.613,-1.123 -1.808,-1.661 0.511,0.047 0.312,0.135 0.769,0.173 0.933,0.093 0.38,-0.105 0.67,-0.262 l 1.725,-0.174 c 0.97,0.093 2.063,0.777 2.72,0.762 0.12,-0.003 0.169,0.015 0.188,0.035 -0.139,0.102 0.05,0.038 0,0 0.041,-0.035 0.083,-0.069 0.176,-0.119 -1.68,-1.06 -0.315,-0.863 -1.968,-1.746 -0.792,-0.415 -0.655,-0.215 -1.36,-0.16 -0.369,0.026 -2.006,-0.898 -2.476,-1.123 -0.534,-0.254 -2.18,-0.924 -2.691,-0.962 -0.909,-0.088 -0.995,0.156 -1.604,0.361 -1.626,-1.267 -0.62,-2.467 -0.023,-2.615 1.56,-0.36 4.964,1.42 6.294,1.993 0.485,0.202 0.962,0.516 1.36,0.689 1.055,0.446 1.059,0.378 1.356,0.161 -0.21,-0.477 -1.389,-2.063 -1.811,-2.318 -0.571,-0.338 -0.714,-0.322 -1.051,-1.05 -0.248,-0.576 -0.519,-0.991 -0.432,-1.691 0.417,-0.454 0.836,-0.834 1.438,-0.894 0.97,-0.084 0.854,0.563 1.574,0.775 0.301,-0.626 0.256,-1.431 0.598,-1.911 0.387,-0.557 1.504,-0.643 1.927,-0.182 l 2.282,6.178 c 0.244,0.39 0.045,-0.224 0.24,0.504 0.383,1.432 0.805,1.33 2.131,2.755 0.307,0.339 1.029,1.063 1.679,0.994 -0.027,-1.382 -0.932,-1.846 -1.319,-3.216 -0.443,-1.532 -1.53,-0.766 -1.356,-3.129 1.036,-0.416 0.987,-0.688 1.837,0.063 0.413,0.367 1.203,0.939 1.889,0.783 0.305,-1.008 -0.782,-4.096 -1.127,-5.363 -0.593,-2.157 0.335,-0.377 -1.161,-3.475 -0.845,-1.755 -1.01,-2.284 0.015,-2.923 0.635,-0.394 2.214,-0.709 2.453,1.466 l 0.306,4.435 c 0.078,0.683 1.616,2.898 1.417,5.86 -0.102,1.628 1.044,1.827 2.919,2.864 1.536,0.844 3.246,2.034 2.258,3.823" /></g><g
           transform="translate(377.2056,230.8721)"
           id="g72"><path
             id="path74"
             style="fill:#ed7221;fill-opacity:1;fill-rule:evenodd;stroke:none"
             d="m 0,0 -0.538,-0.332 c -0.533,-0.347 -0.108,-0.185 -0.754,-0.367 -0.034,-0.008 -0.091,-0.014 -0.121,-0.023 -0.984,-0.257 -0.699,-0.591 -2.228,-0.554 -0.481,0.008 -0.598,0.05 -1.296,0.577 l -0.226,0.22 c 0.774,0.89 0.395,-0.153 2.969,0.258 0.748,0.106 0.654,0.271 1.355,0.504 1.441,0.495 0.535,0.58 1.387,0.467 C 0.583,0.215 0.403,0.224 0,0 M 8.427,1.358 C 7.48,3.338 5.534,3.563 3.727,4.461 2.867,4.889 3.19,5.062 2.472,5.267 2.149,5.36 1.593,5.232 1.187,5.236 -0.572,5.267 -4.55,6.715 -6.455,7.227 c -1.349,0.364 -4.361,1.234 -5.486,1.204 0,0 -0.735,-0.14 -0.919,-0.3 -0.35,-0.285 -0.088,-1.26 -0.088,-1.26 0.71,-0.566 3.547,-1.669 4.576,-1.682 L -3.806,4.233 C -3.036,4.011 -3.001,4.228 -2.404,4.216 -1.987,4.21 -1.3,4.051 -0.898,3.966 -1.334,3.279 -1.709,3.381 -2.355,3.19 -3.059,2.979 -3.34,2.8 -3.949,2.614 L -6.523,2.385 c -0.256,0.025 -0.3,0.068 -0.529,0.097 -0.602,0.098 -0.117,0.052 -0.515,0.052 -1.025,0.003 -2.272,-0.153 -3.52,-0.056 -2.337,0.166 -2.03,0.843 -2.852,-1.5 3.61,-3.639 3.769,-1.258 5.275,-2.288 0.146,-0.885 -0.525,-0.432 0.39,-2.283 1.097,-2.225 2.315,-1.39 4.54,-1.107 1.025,0.124 1.379,0.398 2.288,0.777 2.291,0.962 4.531,0.919 5.162,2.983 0.237,0.77 0.258,0.591 -0.068,1.236 C 3.371,0.847 2.72,2.059 2.875,2.575 5.741,1.99 7.255,-1.459 8.427,1.358" /></g><g
           transform="translate(376.2886,241.6162)"
           id="g76"><path
             id="path78"
             style="fill:#ed7221;fill-opacity:1;fill-rule:evenodd;stroke:none"
             d="m 0,0 c 0.034,-1.152 0.045,-1.429 1.059,-2.33 1.451,-1.301 3.048,-3.772 4.419,-3.542 1.127,0.178 1.608,1.089 1.691,2.144 0.076,0.954 -0.375,1.551 -0.672,2.445 C 6.178,-0.287 5.448,0.037 4.648,0.806 3.19,2.212 2.126,2.556 0.713,1.453 Z" /></g></g></g></g></svg>